<svg height="256px" width="256px" version="1.1" xmlns="http://www.w3.org/2000/svg" viewBox="0 0 512 512" xml:space="preserve" fill="#000000">
    <circle style="fill:#fcd436;" cx="256" cy="256" r="256"/>
    <path style="fill:#fbbd04;" d="M310.859,474.208c-141.385,0-256-114.615-256-256c0-75.537,32.722-143.422,84.757-190.281 C56.738,70.303,0,156.525,0,256c0,141.385,114.615,256,256,256c65.849,0,125.883-24.87,171.243-65.718 C392.325,464.135,352.77,474.208,310.859,474.208z"/>

    <circle style="fill:#FFFFFF;" cx="200" cy="176.5" r="50"/>
    <circle style="fill:#FFFFFF;" cx="370" cy="176.5" r="50"/>

    <circle style="fill:#660000;" cx="210" cy="176.5" r="15"/>
    <circle style="fill:#660000;" cx="380" cy="176.5" r="15"/>

    <path d="M 120 280 A 1 1 0 0 1 180 280" fill="#F9A880"/>
    <path d="M 390 280 A 1 1 0 0 1 450 280" fill="#F9A880"/>

    <path fill="black" d="M264.858,332.121h-20.015v-12.453c0-5.528-4.479-10.007-10.007-10.007c-5.528,0-10.007,4.479-10.007,10.007v12.453h-18.013 v-12.453c0-5.528-4.479-10.007-10.007-10.007c-5.528,0-10.007,4.479-10.007,10.007v12.453h-6.768 c-5.528,0-10.007,4.479-10.007,10.007c0,5.528,4.479,10.007,10.007,10.007h25.239v16.235c0,5.528,4.479,10.007,10.007,10.007 c5.528,0,10.007-4.479,10.007-10.007v-16.235h19.39v16.235c0,5.528,4.479,10.007,10.007,10.007s10.007-4.479,10.007-10.007v-16.235 h19.291v16.235c0,5.528,4.479,10.007,10.007,10.007s10.007-4.479,10.007-10.007v-16.235h18.236v16.235 c0,5.528,4.479,10.007,10.007,10.007c5.528,0,10.007-4.479,10.007-10.007v-16.235h21.377c0.189,9.978,5.008,19.73,13.835,25.81 l41.943,28.883c1.735,1.194,3.709,1.767,5.667,1.767c3.182,0,6.31-1.514,8.251-4.333l24.974-36.265 c1.505-2.187,2.082-4.88,1.6-7.491c-0.482-2.61-1.98-4.921-4.166-6.426l-41.944-28.884c-14.108-9.714-33.323-6.539-43.603,6.925 h-7.253v-12.453c0-5.528-4.479-10.007-10.007-10.007s-10.007,4.479-10.007,10.007v12.453h-20.459v-12.453 c0-5.528-4.479-10.007-10.007-10.007s-10.007,4.479-10.007,10.007v12.453h-17.569v-12.453c0-5.528-4.479-10.007-10.007-10.007 c-5.528,0-10.007,4.479-10.007,10.007L264.858,332.121L264.858,332.121z M385.732,344.76c2.327-3.378,6.087-5.194,9.909-5.194 c2.347,0,4.718,0.686,6.793,2.114l33.702,23.209l-13.622,19.781l-33.701-23.208C383.358,357.705,381.976,350.213,385.732,344.76z"/>

    <path style="fill:#FFFFFF;" d="M450.053,362.055l-24.974,36.265l-41.943-28.884c-10.014-6.896-12.543-20.604-5.645-30.62l0,0 c6.896-10.014,20.604-12.543,30.62-5.645L450.053,362.055z"/>
    <ellipse transform="matrix(0.2723 -0.9622 0.9622 0.2723 148.7333 331.9482)" style="fill:#fde481;" cx="293.829" cy="67.641" rx="29.854" ry="53.46"/>
</svg>