<svg height="800px" width="800px" version="1.1" xmlns="http://www.w3.org/2000/svg" viewBox="0 0 512 512" xml:space="preserve">
	<path style="fill:#8CC1EA;" d="M412.651,128.804H99.349c-10.432,0-19.286,7.655-20.79,17.98l-48.43,332.291
	c-1.847,12.675,7.98,24.039,20.79,24.039H461.08c12.81,0,22.637-11.364,20.79-24.039l-48.43-332.292
	C431.935,136.459,423.083,128.804,412.651,128.804z"/>
    <path style="fill:#79B1D6;" d="M75.821,479.075l48.43-332.292c1.504-10.323,10.357-17.98,20.79-17.98H99.349
	c-10.432,0-19.286,7.655-20.79,17.98l-48.43,332.292c-1.847,12.675,7.98,24.039,20.79,24.039h45.692
	C83.803,503.115,73.974,491.75,75.821,479.075z"/>
    <path fill="white" d="M491.29,477.068L457.585,245.81c-0.758-5.204-5.585-8.803-10.794-8.047c-5.203,0.758-8.805,5.59-8.047,10.793
	l33.705,231.258c0.49,3.352-0.462,6.61-2.677,9.173c-2.216,2.563-5.303,3.974-8.692,3.974H117.773c-5.257,0-9.52,4.262-9.52,9.52
	c0,5.257,4.262,9.52,9.52,9.52H461.08c8.872,0,17.289-3.849,23.092-10.559C489.975,494.729,492.57,485.846,491.29,477.068z"/>
    <path fill="white" d="M412.651,137.689c5.665,0,10.552,4.228,11.369,9.833l8.549,58.662c0.759,5.204,5.59,8.811,10.794,8.047
	c5.203-0.758,8.805-5.59,8.047-10.793l-8.549-58.662c-2.172-14.894-15.158-26.126-30.21-26.126h-28.836
	C378.929,52.405,323.471,0,256,0S133.071,52.405,128.185,118.65H99.349c-15.051,0-28.039,11.232-30.209,26.126L20.71,477.068
	c-1.279,8.78,1.315,17.663,7.118,24.373C33.631,508.151,42.048,512,50.919,512h28.775c5.257,0,9.52-4.262,9.52-9.52
	c0-5.257-4.262-9.52-9.52-9.52H50.919c-3.388,0-6.475-1.411-8.691-3.974c-2.216-2.563-3.168-5.82-2.679-9.173l48.43-332.291
	c0.817-5.605,5.705-9.833,11.37-9.833H412.651z M256,19.039c56.965,0,103.846,43.879,108.688,99.61H147.31
	C152.153,62.919,199.035,19.039,256,19.039z"/>
    <path fill="white" d="M180.888,251.332c-5.257,0-9.52,4.262-9.52,9.52v108.946c0,5.257,4.262,9.52,9.52,9.52c5.257,0,9.52-4.262,9.52-9.52V327.97
	l11.397,4.312c8.286,3.135,14.686,10.092,17.12,18.612l6.148,21.52c1.194,4.181,5.006,6.906,9.149,6.906
	c0.866,0,1.747-0.119,2.62-0.369c5.054-1.444,7.983-6.713,6.538-11.769l-6.148-21.518c-4.078-14.276-14.803-25.934-28.689-31.188
	l-3.126-1.183c13.491-9.383,23.247-23.662,26.806-40.116l2.23-10.313c1.111-5.138-2.154-10.205-7.293-11.317
	c-5.136-1.111-10.205,2.153-11.317,7.293l-2.23,10.313c-2.88,13.319-11.481,24.62-23.205,31.067v-39.368
	C190.408,255.594,186.146,251.332,180.888,251.332z"/>
    <path fill="white" d="M298.769,270.371c12.584,0,22.822,10.238,22.822,22.823c0,5.257,4.261,9.52,9.52,9.52s9.52-4.262,9.52-9.52
	c0-23.083-18.78-41.863-41.863-41.863c-23.082,0-41.861,18.779-41.861,41.863v44.259c0,23.083,18.779,41.863,41.863,41.863
	c23.083,0,41.861-18.779,41.861-41.863v-14.186c0-5.257-4.261-9.52-9.52-9.52h-28.371c-5.259,0-9.52,4.262-9.52,9.52
	s4.261,9.52,9.52,9.52h18.852v4.666c0,12.585-10.238,22.823-22.823,22.823c-12.584,0-22.822-10.238-22.822-22.823v-44.259
	C275.946,280.61,286.184,270.371,298.769,270.371z"/>
</svg>