<!-- Vectors and icons by <a href="https://dribbble.com/JulesRenvoise?ref=svgrepo.com" target="_blank">Jrdesign</a> in CC Attribution License via <a href="https://www.svgrepo.com/" target="_blank">SVG Repo</a> -->
<svg width="800px" height="800px" viewBox="0 0 129.103 129.103" xmlns="http://www.w3.org/2000/svg">
    <defs>
        <clipPath id="clip-path">
            <circle  cx="64.551" cy="64.551" r="64.551" transform="translate(331.399 204.494)" fill="none"/>
        </clipPath>
    </defs>
    <g id="Jupiter" transform="translate(-331.399 -204.494)">
        <g >
            <circle  cx="64.551" cy="64.551" r="64.551" transform="translate(331.399 204.494)" fill="#f4d0b1"/>
            <g >
                <g  clip-path="url(#clip-path)">
                    <path  d="M330.159,214.5A1021.437,1021.437,0,0,1,540.3,228.515" fill="none" stroke="#dcb98e" stroke-miterlimit="10" stroke-width="6.236" opacity="0.5"/>
                    <path  d="M323.839,320.642a1021.438,1021.438,0,0,1,210.146,14.014" fill="none" stroke="#dcb98e" stroke-miterlimit="10" stroke-width="6.236" opacity="0.5"/>
                    <path  d="M306.743,333.544a1021.431,1021.431,0,0,1,210.51,6.564" fill="none" stroke="#da5423" stroke-miterlimit="10" stroke-width="10.834"/>
                    <path  d="M313.462,286.841l31.253,3.735a420.454,420.454,0,0,0,99.566,0l31.254-3.734" fill="none" stroke="#ef8f4d" stroke-miterlimit="10" stroke-width="9.931"/>
                    <path  d="M475.535,248.952l-31.254-3.734a420.4,420.4,0,0,0-99.566,0l-31.253,3.734" fill="none" stroke="#dcb98e" stroke-miterlimit="10" stroke-width="9.931" opacity="0.3"/>
                    <path  d="M475.535,260.237,444.281,256.5a420.508,420.508,0,0,0-99.566,0l-31.253,3.734" fill="none" stroke="#dcb98e" stroke-miterlimit="10" stroke-width="3.611" opacity="0.3"/>
                    <path  d="M475.535,239.37l-31.254-3.734a420.4,420.4,0,0,0-99.566,0l-31.253,3.734" fill="none" stroke="#ef8f4d" stroke-miterlimit="10" stroke-width="1.806"/>
                    <path  d="M475.535,222.818l-31.254-3.734a420.4,420.4,0,0,0-99.566,0l-31.253,3.734" fill="none" stroke="#ef8f4d" stroke-miterlimit="10" stroke-width="6.32"/>
                    <path  d="M313.462,276.043l31.253,3.734a420.4,420.4,0,0,0,99.566,0l31.254-3.734" fill="none" stroke="#ef8f4d" stroke-miterlimit="10" stroke-width="1.806"/>
                </g>
            </g>
            <path  d="M395.951,333.6A64.549,64.549,0,0,0,439.23,221.154a64.31,64.31,0,0,1,16.661,43.28c0,35.65-33.6,68.495-69.248,68.495" opacity="0.2" style="mix-blend-mode: darken;isolation: isolate"/>
            <path  d="M460.5,269.045" fill="none"/>
            <path  d="M331.4,269.045" fill="none"/>
            <ellipse  cx="6.342" cy="13.184" rx="6.342" ry="13.184" transform="matrix(0.059, -0.998, 0.998, 0.059, 352.542, 303.227)" fill="#ef8f4d" stroke="#f3cda6" stroke-miterlimit="10" stroke-width="2.349"/>
        </g>
    </g>
</svg>