<!-- Vectors and icons by <a href="https://dribbble.com/JulesRenvoise?ref=svgrepo.com" target="_blank">Jrdesign</a> in CC Attribution License via <a href="https://www.svgrepo.com/" target="_blank">SVG Repo</a> -->
<svg width="800px" height="800px" viewBox="0 -0.09 62.208 62.208" xmlns="http://www.w3.org/2000/svg">
  <defs>
    <clipPath id="clip-path">
      <circle  cx="30.955" cy="30.955" r="30.955" transform="translate(591.796 432.345)" fill="none"/>
    </clipPath>
    <clipPath id="clip-path-2">
      <circle  cx="3.522" cy="3.522" r="3.522" transform="translate(619.23 473.682)" fill="none"/>
    </clipPath>
  </defs>
  <g id="Moon" transform="translate(-591.499 -432.345)">
    <circle  cx="30.955" cy="30.955" r="30.955" transform="translate(591.796 432.345)" fill="#f0f5f9"/>
    <path  d="M622.752,494.256a30.954,30.954,0,0,0,20.754-53.921,30.839,30.839,0,0,1,7.99,20.754c0,17.1-16.112,32.847-33.208,32.847" fill="#312449" opacity="0.3" style="mix-blend-mode: darken;isolation: isolate"/>
    <g >
      <circle  cx="3.16" cy="3.16" r="3.16" transform="translate(622.5 442.577)" fill="#312449" opacity="0.3" style="mix-blend-mode: darken;isolation: isolate"/>
      <path  d="M623.459,445.737a3.15,3.15,0,0,1,2.68-3.111,3.027,3.027,0,0,0-.48-.049,3.161,3.161,0,1,0,.48,6.272A3.152,3.152,0,0,1,623.459,445.737Z" fill="#312449" opacity="0.3" style="mix-blend-mode: darken;isolation: isolate"/>
    </g>
    <g  opacity="0.7">
      <circle  cx="1.632" cy="1.632" r="1.632" transform="translate(612.517 441.096)" fill="#312449" opacity="0.3" style="mix-blend-mode: darken;isolation: isolate"/>
      <path  d="M613.012,442.728a1.627,1.627,0,0,1,1.384-1.607,1.682,1.682,0,0,0-.248-.025,1.632,1.632,0,0,0,0,3.263,1.559,1.559,0,0,0,.248-.025A1.627,1.627,0,0,1,613.012,442.728Z" fill="#312449" opacity="0.3" style="mix-blend-mode: darken;isolation: isolate"/>
    </g>
    <g  opacity="0.6">
      <circle  cx="5.643" cy="5.643" r="5.643" transform="translate(597.371 459.289)" fill="#312449" opacity="0.3" style="mix-blend-mode: darken;isolation: isolate"/>
      <path  d="M599.084,464.932a5.627,5.627,0,0,1,4.786-5.556,5.505,5.505,0,0,0-.857-.087,5.645,5.645,0,1,0,.857,11.2A5.629,5.629,0,0,1,599.084,464.932Z" fill="#312449" opacity="0.3" style="mix-blend-mode: darken;isolation: isolate"/>
    </g>
    <g  opacity="0.6">
      <circle  cx="5.643" cy="5.643" r="5.643" transform="translate(635.998 472.973)" fill="#312449" opacity="0.3" style="mix-blend-mode: darken;isolation: isolate"/>
      <path  d="M637.711,478.616a5.628,5.628,0,0,1,4.786-5.557,5.644,5.644,0,1,0,0,11.113A5.627,5.627,0,0,1,637.711,478.616Z" fill="#312449" opacity="0.3" style="mix-blend-mode: darken;isolation: isolate"/>
    </g>
    <g  opacity="0.8">
      <circle  cx="3.643" cy="3.643" r="3.643" transform="translate(638.854 454.54)" fill="#312449" opacity="0.3" style="mix-blend-mode: darken;isolation: isolate"/>
      <path  d="M639.96,458.183a3.632,3.632,0,0,1,3.09-3.587,3.644,3.644,0,1,0,0,7.173A3.632,3.632,0,0,1,639.96,458.183Z" fill="#312449" opacity="0.3" style="mix-blend-mode: darken;isolation: isolate"/>
    </g>
    <g >
      <g  clip-path="url(#clip-path)">
        <g  opacity="0.6">
          <circle  cx="5.643" cy="5.643" r="5.643" transform="translate(598.574 480.134)" fill="#312449" opacity="0.3" style="mix-blend-mode: darken;isolation: isolate"/>
          <path  d="M600.287,485.777a5.63,5.63,0,0,1,4.787-5.557,5.634,5.634,0,1,0-.857,11.2,5.517,5.517,0,0,0,.857-.087A5.628,5.628,0,0,1,600.287,485.777Z" fill="#312449" opacity="0.3" style="mix-blend-mode: darken;isolation: isolate"/>
        </g>
      </g>
    </g>
    <path  d="M593.367,457.841a12.067,12.067,0,0,0-1.538-2.81c-.216-.189-.4-.406-.3-.675l1.229-3.2a.523.523,0,0,1,.674-.3l2.557.013a.524.524,0,0,1,.3.675l-2.248,6A.524.524,0,0,1,593.367,457.841Z" fill="#f0f5f9"/>
    <path  d="M618.113,492.374a12.06,12.06,0,0,0-2.746,1.649c-.18.223-.389.419-.662.327l-3.251-1.1a.524.524,0,0,1-.327-.662l-.089-2.555a.524.524,0,0,1,.662-.328l6.086,2.006A.524.524,0,0,1,618.113,492.374Z" fill="#f0f5f9"/>
    <path  d="M632.995,435.132a12.066,12.066,0,0,0,3.08-.877c.232-.169.486-.3.724-.144l5.717,3.362a.524.524,0,0,1,.144.725l-.578,2.49a.525.525,0,0,1-.725.144l-8.219-4.975A.525.525,0,0,1,632.995,435.132Z" fill="#f0f5f9"/>
    <path  d="M636.8,434.111a7.507,7.507,0,0,0,2.271,2,12.73,12.73,0,0,0,3.446,1.366" fill="#312449" opacity="0.3" style="mix-blend-mode: darken;isolation: isolate"/>
   </g>
</svg>