<!-- Vectors and icons by <a href="https://dribbble.com/JulesRenvoise?ref=svgrepo.com" target="_blank">Jrdesign</a> in CC Attribution License via <a href="https://www.svgrepo.com/" target="_blank">SVG Repo</a> -->
<svg width="800px" height="800px" viewBox="18 0 118 118" xmlns="http://www.w3.org/2000/svg">
  <defs>
    <clipPath id="clip-path">
      <circle  cx="48.548" cy="48.548" r="48.548" transform="translate(566.856 220.497)" fill="none"/>
    </clipPath>
    <clipPath id="clip-path-2">
      <path  d="M3.185,0H24.172a3.185,3.185,0,0,1,3.185,3.185v.326A13.678,13.678,0,0,1,13.679,17.19h0A13.678,13.678,0,0,1,0,3.511V3.185A3.185,3.185,0,0,1,3.185,0Z" transform="translate(602.661 292.497)" fill="none"/>
    </clipPath>
  </defs>
  <g id="Saturn" transform="rotate(45)">
    <g transform="translate(-520 -290)">
      <circle  cx="48.548" cy="48.548" r="48.548" transform="translate(566.856 220.497)" fill="#fac731"/>
      <g>
        <g  clip-path="url(#clip-path)">
          <path  d="M564.616,294.154s69.518,7.222,102.923,0-3.588,16.552-3.588,16.552-42.49-3.01-97.095,8.727S564.616,294.154,564.616,294.154Z" fill="#312449" opacity="0.2" style="mix-blend-mode: darken;isolation: isolate"/>
          <path  d="M565.73,234.629s68.7,11.786,102.435,10.019-4.7,11.153-4.7,11.153-42.084-6.228-97.227-3.387S565.73,234.629,565.73,234.629Z" fill="#f0f5f9" opacity="0.4"/>
        </g>
      </g>
      <path  d="M615.4,317.592a48.547,48.547,0,0,0,32.55-84.565,48.083,48.083,0,0,1,12.53,32.55c-.131,26.882-25.572,51.676-52.08,51.514" opacity="0.1" style="mix-blend-mode: darken;isolation: isolate"/>
      <path  d="M663.7,272.951c4.228,1.151,6.63,2.47,6.63,3.872,0,4.486-24.592,8.123-54.928,8.123s-54.928-3.637-54.928-8.123c0-1.39,2.36-2.7,6.52-3.842l-.14-5.5c-18.928,2.154-31.125,5.538-31.125,9.343,0,6.507,35.671,11.782,79.673,11.782s79.672-5.275,79.672-11.782c0-3.8-12.2-7.189-31.125-9.343" fill="#f0f5f9"/>
    </g>
  </g>
</svg>