<!-- Vectors and icons by <a href="https://github.com/teenyicons/teenyicons?ref=svgrepo.com" target="_blank">Teenyicons</a> in MIT License via <a href="https://www.svgrepo.com/" target="_blank">SVG Repo</a> -->
<svg width="1600px" height="800px" viewBox="1.2 4.5 12 6" xmlns="http://www.w3.org/2000/svg">
    <g>
        <path fill="white" d="M2.5 5.5L2.85355 5.14645C2.71055 5.00345 2.4955 4.96067 2.30866 5.03806C2.12182 5.11545 2 5.29777 2 5.5H2.5ZM4.5 7.5L4.14645 7.85355L4.5 8.20711L4.85355 7.85355L4.5 7.5ZM6.5 5.5H7C7 5.29777 6.87818 5.11545 6.69134 5.03806C6.5045 4.96067 6.28945 5.00345 6.14645 5.14645L6.5 5.5ZM10.5 9.5L10.1464 9.85355L10.5 10.2071L10.8536 9.85355L10.5 9.5ZM3 10V5.5H2V10H3ZM2.14645 5.85355L4.14645 7.85355L4.85355 7.14645L2.85355 5.14645L2.14645 5.85355ZM4.85355 7.85355L6.85355 5.85355L6.14645 5.14645L4.14645 7.14645L4.85355 7.85355ZM6 5.5V10H7V5.5H6ZM10 5V9.5H11V5H10ZM8.14645 7.85355L10.1464 9.85355L10.8536 9.14645L8.85355 7.14645L8.14645 7.85355ZM10.8536 9.85355L12.8536 7.85355L12.1464 7.14645L10.1464 9.14645L10.8536 9.85355Z"/>
    </g>
</svg>