<svg width="800px" height="800px" viewBox="0 0 1024 1024" class="icon" version="1.1" xmlns="http://www.w3.org/2000/svg">
    <path d="M512.004 512.002m-491.988 0a491.988 491.988 0 1 0 983.976 0 491.988 491.988 0 1 0-983.976 0Z" fill="#FDDF6D"/>
    <path d="M617.43 931.354c-271.716 0-491.986-220.268-491.986-491.986 0-145.168 62.886-275.632 162.888-365.684C129.056 155.122 20.016 320.824 20.016 512c0 271.716 220.268 491.986 491.986 491.986 126.548 0 241.924-47.796 329.098-126.298-67.106 34.308-143.124 53.666-223.67 53.666z" fill="#FCC56B"/>
    <path d="M426.314 359.704m-60.044 0a60.044 60.044 0 1 0 120.088 0 60.044 60.044 0 1 0-120.088 0Z" fill="#660000"/>
    <path d="M764.376 359.704m-60.044 0a60.044 60.044 0 1 0 120.088 0 60.044 60.044 0 1 0-120.088 0Z" fill="#660000"/>
    <path d="M900.106 724.11l-49.948 72.53-83.886-57.768c-20.028-13.792-25.086-41.208-11.29-61.24 13.792-20.028 41.208-25.086 61.24-11.29l83.884 57.768z" fill="#FFFFFF"/>
    <path fill="#660000" d="M529.716 664.242h-40.03v-24.906a20.01 20.01 0 0 0-20.014-20.014 20.01 20.01 0 0 0-20.014 20.014v24.906h-36.026v-24.906a20.01 20.01 0 0 0-20.014-20.014 20.01 20.01 0 0 0-20.014 20.014v24.906h-13.536a20.01 20.01 0 0 0-20.014 20.014 20.01 20.01 0 0 0 20.014 20.014h50.478v32.47a20.01 20.01 0 0 0 20.014 20.014 20.01 20.01 0 0 0 20.014-20.014v-32.47h38.78v32.47c0 11.056 8.958 20.014 20.014 20.014s20.014-8.958 20.014-20.014v-32.47h38.582v32.47c0 11.056 8.958 20.014 20.014 20.014s20.014-8.958 20.014-20.014v-32.47h36.472v32.47a20.01 20.01 0 0 0 20.014 20.014 20.01 20.01 0 0 0 20.014-20.014v-32.47h42.754c0.378 19.956 10.016 39.46 27.67 51.62l83.886 57.766a19.92 19.92 0 0 0 11.334 3.534 19.992 19.992 0 0 0 16.502-8.666l49.948-72.53a20.014 20.014 0 0 0-5.132-27.834l-83.888-57.768c-28.216-19.428-66.646-13.078-87.206 13.85h-14.506v-24.906c0-11.056-8.958-20.014-20.014-20.014s-20.014 8.958-20.014 20.014v24.906h-40.918v-24.906c0-11.056-8.958-20.014-20.014-20.014s-20.014 8.958-20.014 20.014v24.906h-35.138v-24.906a20.01 20.01 0 0 0-20.014-20.014 20.01 20.01 0 0 0-20.014 20.014l0.002 24.906z m241.748 25.278c4.654-6.756 12.174-10.388 19.818-10.388 4.694 0 9.436 1.372 13.586 4.228l67.404 46.418-27.244 39.562-67.402-46.416c-10.91-7.514-13.674-22.498-6.162-33.404z"/>
</svg>