<svg
    width="800px"
    height="800px"
    viewBox="-2 0 26 26"
    xmlns="http://www.w3.org/2000/svg"
    stroke="white"
    stroke-width="1.5"
    stroke-linecap="round"
    stroke-linejoin="round"
    fill="none"
>
    <path d="M9 13l-7 7a2 2 0 0 0 2 2l7 -7"/>
    <path d="M11 15l2 2a1.414 1.414 0 0 0 0 2l2 2a1.414 1.414 0 0 0 2 0l5 -5a1.414 1.414 0 0 0 0 -2l-2 -2a1.414 1.414 0 0 0 -2 0l-6 -6a1.414 1.414 0 0 0 0 -2l-2 -2a1.414 1.414 0 0 0 -2 0l-5 5a1.414 1.414 0 0 0 0 2l2 2a1.414 1.414 0 0 0 2 0z"/>
</svg>