<svg fill="white" xmlns="http://www.w3.org/2000/svg" width="800px" height="800px" viewBox="0 0 650 650">
    <path d="M388.492,282.663l26.058-26.057c1.54,0.121,3.092,0.182,4.653,0.182c15.529,0,30.13-6.048,41.111-17.029l24.812-24.812
    c22.668-22.669,22.667-59.554,0.001-82.221L369.929,17.529C358.947,6.548,344.348,0.5,328.817,0.5
    c-15.529,0-30.129,6.047-41.11,17.028L262.895,42.34c-12.508,12.51-18.114,29.348-16.818,45.737L88.105,246.049
    c-1.54-0.122-3.092-0.183-4.653-0.183c-15.53,0-30.13,6.048-41.111,17.029l-24.812,24.812c-22.669,22.67-22.668,59.554,0,82.222
    l115.197,115.197c10.98,10.98,25.581,17.028,41.11,17.028s30.13-6.048,41.111-17.028l24.812-24.812
    c10.981-10.981,17.029-25.582,17.029-41.111c0-1.562-0.061-3.114-0.182-4.653l26.058-26.059l186.801,186.801
    c10.98,10.981,25.58,17.029,41.11,17.029s30.13-6.048,41.112-17.029l23.605-23.605c22.669-22.671,22.668-59.555,0-82.223
    L388.492,282.663z M252.758,357.813l-46.931,46.931l3.64,3.641c5.975,5.975,5.975,15.662,0,21.637l-24.812,24.812
    c-2.987,2.986-6.903,4.48-10.819,4.48s-7.831-1.494-10.818-4.48L47.821,339.637c-5.975-5.975-5.975-15.662,0-21.637l24.812-24.812
    c2.988-2.987,6.903-4.481,10.819-4.481s7.831,1.494,10.819,4.481l3.64,3.64L296.829,97.911l-3.641-3.641
    c-5.975-5.975-5.975-15.662,0-21.637L318,47.822c2.987-2.987,6.903-4.481,10.818-4.481c3.916,0,7.832,1.494,10.819,4.481
    l115.196,115.197c5.976,5.975,5.976,15.662,0,21.637l-24.812,24.812c-2.987,2.987-6.903,4.481-10.818,4.481
    c-3.916,0-7.831-1.494-10.819-4.481l-3.64-3.641l-46.931,46.931l-31.502,31.501l-42.053,42.054L252.758,357.813z M545.001,521.395
    l-23.606,23.606c-2.987,2.987-6.903,4.48-10.818,4.48c-3.916,0-7.832-1.493-10.819-4.48L312.956,358.2l45.243-45.244
    l186.802,186.802C550.976,505.732,550.976,515.42,545.001,521.395z"/>
    <path d="M510.575,592.821c-15.663,0-30.389-6.1-41.464-17.176L282.664,389.198l-25.542,25.543c0.11,1.475,0.166,2.975,0.166,4.462
    c0,15.663-6.1,30.389-17.175,41.465l-24.812,24.812c-11.076,11.075-25.802,17.175-41.465,17.175
    c-15.664,0-30.389-6.1-41.464-17.175L17.175,370.282C6.117,359.225,0.027,344.499,0.027,328.818
    c0-15.681,6.09-30.406,17.148-41.465l24.812-24.812c11.076-11.076,25.801-17.175,41.465-17.175c1.488,0,2.988,0.056,4.462,0.167
    L245.56,87.886c-1.285-17.096,4.896-33.813,16.981-45.899l24.812-24.812C298.43,6.1,313.155,0,328.817,0
    c15.663,0,30.389,6.1,41.465,17.175L485.48,132.373c22.861,22.863,22.861,60.064-0.001,82.928l-24.812,24.812
    c-11.076,11.076-25.802,17.175-41.465,17.175c-1.487,0-2.987-0.056-4.462-0.166l-25.542,25.541L575.646,469.11
    c22.863,22.863,22.863,60.064,0,82.93l-23.605,23.605C540.964,586.722,526.238,592.821,510.575,592.821z M282.664,387.784
    l187.155,187.154c10.886,10.887,25.36,16.883,40.757,16.883c15.396,0,29.871-5.996,40.759-16.883l23.605-23.605
    c22.473-22.475,22.473-59.043,0-81.516L387.785,282.663l26.574-26.573l0.229,0.018c1.523,0.12,3.076,0.181,4.614,0.181
    c15.396,0,29.87-5.996,40.758-16.882l24.812-24.812c22.473-22.474,22.473-59.041,0.001-81.514L369.575,17.882
    C358.688,6.996,344.213,1,328.817,1s-29.87,5.996-40.757,16.882l-24.812,24.812c-11.931,11.933-18.008,28.46-16.673,45.344
    l0.018,0.23L88.295,246.565l-0.23-0.018c-1.521-0.12-3.074-0.181-4.614-0.181c-15.396,0-29.871,5.996-40.758,16.882
    l-24.812,24.812c-10.869,10.87-16.855,25.345-16.855,40.758c0,15.414,5.986,29.888,16.855,40.757L133.08,484.772
    c10.886,10.887,25.36,16.882,40.757,16.882c15.396,0,29.871-5.995,40.758-16.882l24.812-24.812
    c10.887-10.888,16.882-25.362,16.882-40.758c0-1.538-0.061-3.091-0.181-4.614l-0.018-0.229L282.664,387.784z M510.576,549.981
    c-4.222,0-8.189-1.644-11.173-4.627L312.249,358.2l45.95-45.951l187.155,187.155c2.984,2.984,4.628,6.951,4.628,11.172
    s-1.644,8.188-4.628,11.172l-23.606,23.606C518.765,548.338,514.797,549.981,510.576,549.981z M313.663,358.2L500.11,544.647
    c2.795,2.795,6.512,4.334,10.466,4.334c3.953,0,7.67-1.539,10.465-4.334l23.606-23.606c5.771-5.771,5.771-15.159,0-20.93
    L358.199,313.663L313.663,358.2z M173.836,459.814c-4.22,0-8.187-1.644-11.172-4.627L47.468,339.99
    c-2.984-2.984-4.627-6.951-4.627-11.172s1.644-8.188,4.627-11.172l24.812-24.812c2.984-2.984,6.952-4.627,11.172-4.627
    s8.188,1.644,11.172,4.627l3.287,3.287l198.211-198.21l-3.288-3.287c-6.16-6.16-6.16-16.184,0-22.344l24.812-24.812
    c2.984-2.984,6.951-4.627,11.172-4.627s8.188,1.644,11.173,4.627l115.196,115.197c2.984,2.984,4.628,6.952,4.628,11.172
    c0,4.22-1.644,8.188-4.628,11.172l-24.812,24.812c-2.984,2.984-6.952,4.627-11.172,4.627s-8.188-1.644-11.173-4.627l-3.286-3.288
    l-198.211,198.21l3.287,3.287c2.984,2.984,4.627,6.951,4.627,11.172s-1.644,8.188-4.627,11.172l-24.812,24.812
    C182.024,458.171,178.057,459.814,173.836,459.814z M83.452,289.207c-3.953,0-7.669,1.54-10.465,4.334l-24.812,24.812
    c-2.795,2.795-4.334,6.512-4.334,10.465s1.54,7.67,4.334,10.465L163.372,454.48c2.796,2.795,6.512,4.334,10.465,4.334
    c3.954,0,7.67-1.539,10.465-4.334l24.812-24.812c2.795-2.795,4.334-6.512,4.334-10.465s-1.54-7.67-4.334-10.465l-3.994-3.994
    L404.745,205.12l3.993,3.995c2.797,2.795,6.514,4.334,10.466,4.334c3.953,0,7.669-1.54,10.465-4.334l24.812-24.812
    c2.796-2.795,4.335-6.512,4.335-10.465c0-3.954-1.539-7.67-4.335-10.465L339.284,48.175c-2.795-2.795-6.512-4.334-10.466-4.334
    c-3.953,0-7.67,1.54-10.465,4.334l-24.812,24.812c-5.77,5.771-5.77,15.16,0,20.93l3.995,3.994L97.911,297.535l-3.994-3.994
    C91.122,290.747,87.405,289.207,83.452,289.207z"/>
</svg>