<svg version="1.1"
     id="Layer_1"
     xmlns="http://www.w3.org/2000/svg"
     viewBox="0 0 491.546 491.546"
     xml:space="preserve"
     width="800px"
     height="800px"
     fill="#000000"
>
    <g id="SVGRepo_bgCarrier" stroke-width="0"/>
    <g id="SVGRepo_tracerCarrier" stroke-linecap="round" stroke-linejoin="round"/>
    <g id="SVGRepo_iconCarrier">
        <rect x="0.013" y="241.459" style="fill:#bc3c29;" width="163.84" height="250.035"/>
        <rect x="163.853" y="17.874" style="fill:#31978C;" width="163.84" height="473.651"/>
        <rect x="327.693" y="166.272" style="fill:#DC8744;" width="163.84" height="325.274"/>
        <rect x="0.013" y="223.611" style="fill:#e24f3f;" width="163.84" height="250.035"/>
        <rect x="163.853" style="fill:#44C4A1;" width="163.84" height="473.651"/>
        <rect x="327.693" y="148.398" style="fill:#FCD462;" width="163.84" height="325.274"/>
        <g>
            <path style="fill:#000000;" d="M224.454,184.161h42.637v105.324h-22.6v-85.287h-20.037V184.161z"/>
            <path style="fill:#000000;" d="M417.596,300.623c2.661-3.766,3.997-7.407,3.997-10.926c0-3.507-1.152-6.45-3.471-8.817 c-2.306-2.355-5.272-3.532-8.89-3.532c-6.622,0-12.9,4.721-18.836,14.163l-18.835-11.159c4.93-7.628,10.325-13.403,16.199-17.328 c5.874-3.911,13.366-5.874,22.453-5.874c9.086,0,17.082,2.895,23.961,8.67c6.88,5.775,10.326,13.636,10.326,23.581 c0,5.42-1.386,10.62-4.145,15.598c-2.773,4.967-7.861,11.32-15.304,19.057L406.069,343.8h41.595v21.092h-74.287v-17.474 l30.89-31.65C410.495,309.439,414.934,304.387,417.596,300.623z"/>
            <path style="fill:#000000;" d="M50.148,315.402v-20.037h64.489v16.273L93.091,336.2c8.437,1.41,14.961,4.942,19.584,10.619 c4.623,5.678,6.929,12.227,6.929,19.67c0,11.048-3.74,19.706-11.221,25.985c-7.48,6.279-17.057,9.419-28.706,9.419 c-11.65,0-23.459-4.121-35.415-12.349l9.65-18.689c9.946,7.026,18.836,10.547,26.672,10.547c4.721,0,8.608-1.154,11.674-3.459 c3.067-2.317,4.599-5.653,4.599-10.03c0-4.366-1.766-7.836-5.272-10.399c-3.521-2.551-8.388-3.838-14.618-3.838 c-3.311,0-7.983,0.956-14.016,2.869v-17.34l20.197-23.802H50.148z"/>
        </g>
    </g>
</svg>