<svg fill="white" height="800px" width="800px" version="1.1" xmlns="http://www.w3.org/2000/svg" viewBox="0 0 512 512">
	<path d="M494.701,212.481l-28.245-5.44c-26.524-5.091-38.686-36.072-22.715-57.848l17.728-24.17
	c6.228-8.491,5.329-20.256-2.117-27.702l-38.293-38.293c-7.233-7.233-18.581-8.314-27.05-2.577l-23.808,16.128
	c-22.352,15.131-52.859,1.819-56.978-24.867L308.682,18.1C307.085,7.688,298.128,0,287.595,0h-54.165
	c-10.232,0-19.022,7.264-20.951,17.312l-6.997,36.459c-4.995,25.931-34.876,38.311-56.751,23.498l-30.74-20.82
	c-8.468-5.736-19.816-4.654-27.048,2.578L52.648,97.32c-7.446,7.446-8.345,19.211-2.117,27.702l17.728,24.171
	c15.971,21.776,3.809,52.756-22.702,57.845l-28.258,5.442C7.257,214.415,0,223.203,0,233.429v54.144
	c0,10.528,7.68,19.482,18.085,21.085l29.632,4.565c26.699,4.105,40.01,34.618,24.862,56.976L56.45,394.009
	c-5.737,8.468-4.655,19.817,2.577,27.05l38.293,38.293c7.446,7.446,19.211,8.345,27.702,2.117l24.171-17.728
	c21.776-15.971,52.764-3.809,57.869,22.712l5.416,28.233C214.406,504.735,223.197,512,233.429,512h54.165
	c10.532,0,19.488-7.686,21.086-18.096l3.2-20.843c4.199-27.285,35.833-40.394,58.097-24.07l16.993,12.473
	c8.491,6.233,20.26,5.335,27.708-2.113l38.293-38.293c7.233-7.233,8.314-18.581,2.577-27.05l-16.128-23.808
	c-15.149-22.359-1.838-52.872,24.855-56.976l29.638-4.566C504.32,307.055,512,298.101,512,287.573v-54.144
	C512,223.203,504.743,214.415,494.701,212.481z M469.333,269.275l-11.547,1.779c-57.654,8.865-86.411,74.78-53.688,123.077
	l6.244,9.217l-12.886,12.886l-2.242-1.646c-48.101-35.266-116.436-6.949-125.506,51.99l-0.423,2.754h-18.228l-2.097-10.931
	c-11.027-57.294-77.962-83.566-125.003-49.066l-9.412,6.903l-12.89-12.89l6.245-9.219
	c32.722-48.296,3.966-114.211-53.695-123.077l-11.541-1.778v-18.229l10.947-2.108c57.275-10.994,83.553-77.935,49.051-124.978
	l-6.903-9.412l12.891-12.891l16.152,10.94c47.243,31.991,111.785,5.253,122.576-50.77l3.677-19.16h18.226l1.768,11.532
	c8.899,57.651,74.781,86.398,123.072,53.707l9.225-6.249l12.89,12.89l-6.903,9.411c-34.503,47.044-8.225,113.984,49.063,124.981
	l10.934,2.106V269.275z"/>
	<path d="M256,149.327c-58.907,0-106.667,47.759-106.667,106.667S197.093,362.66,256,362.66s106.667-47.759,106.667-106.667
	S314.907,149.327,256,149.327z M256,319.994c-35.343,0-64-28.657-64-64s28.657-64,64-64s64,28.657,64,64
	S291.343,319.994,256,319.994z"/>
</svg>