<svg width="800px" height="800px" viewBox="0 0 60 60" xmlns="http://www.w3.org/2000/svg" fill="none" stroke="white" stroke-width="4.5" stroke-linecap="round">
    <circle cx="30" cy="17.5" r="10"/>
    <path d="M15 50v-5a10 10 0 0 1 10 -10h5" />
    <circle cx="46" cy="45" r="3" stroke-width="3.5"/>
    <path stroke-width="3.5" d="M57.758,39.366l-1,-1.732 c-0.552,-0.957 -1.775,-1.284 -2.732,-0.732 l-0.526,0.304 c-2,1.154 -4.5,-0.289 -4.5,-2.598 v-0.608 c0,-1.105 -0.895,-2 -2,-2 h-2 c-1.105,0 -2,0.895 -2,2 v0.608 c0,2.309 -2.5,3.753 -4.5,2.598 l-0.526,-0.304 c-0.957,-0.552 -2.18,-0.225 -2.732,0.732 l-1,1.732 c-0.552,0.957 -0.225,2.18 0.732,2.732 l0.526,0.304 c2,1.155 2,4.041 0,5.196 l-0.526,0.304 c-0.957,0.552 -1.284,1.775 -0.732,2.732 l1,1.732 c0.552,0.957 1.775,1.284 2.732,0.732 l0.526,-0.304 c2,-1.155 4.5,0.289 4.5,2.598 v0.608 c0,1.105 0.895,2 2,2 h2 c1.105,0 2,-0.895 2,-2 v-0.608 c0,-2.309 2.5,-3.753 4.5,-2.598 l0.526,0.304 c0.957,0.552 2.18,0.225 2.732,-0.732 l1,-1.732 c0.552,-0.957 0.225,-2.18 -0.732,-2.732 l-0.526,-0.304 c-2,-1.155 -2,-4.041 0,-5.196 l0.526,-0.304 c0.957,-0.552 1.284,-1.775 0.732,-2.732 z"/>
</svg>