<!-- Vectors and icons by <a href="https://dribbble.com/JumpWhale?ref=svgrepo.com" target="_blank">Ayub Irawan</a> in CC Attribution License via <a href="https://www.svgrepo.com/" target="_blank">SVG Repo</a> -->
<svg fill="white" width="800px" height="800px" viewBox="0 0 32 32" enable-background="new 0 0 32 32" id="Glyph" version="1.1" xml:space="preserve" xmlns="http://www.w3.org/2000/svg">
	<path d="M13,16c0,1.654,1.346,3,3,3s3-1.346,3-3s-1.346-3-3-3S13,14.346,13,16z"/>
    <path d="M13,26c0,1.654,1.346,3,3,3s3-1.346,3-3s-1.346-3-3-3S13,24.346,13,26z"/>
    <path d="M13,6c0,1.654,1.346,3,3,3s3-1.346,3-3s-1.346-3-3-3S13,4.346,13,6z"/>
</svg>