<!-- Vectors and icons by <a href="https://www.figma.com/@maryakveo?ref=svgrepo.com" target="_blank">Mary Akveo</a> in PD License via <a href="https://www.svgrepo.com/" target="_blank">SVG Repo</a> -->
<svg fill="white" width="800px" height="800px" viewBox="0 0 24 24" stroke-linecap="round" xmlns="http://www.w3.org/2000/svg">
    <!--path d="M19,22a1,1,0,0,1-1-1V14a1,1,0,0,1,2,0v7A1,1,0,0,1,19,22Zm-7,0a1,1,0,0,1-1-1V7a1,1,0,0,1,2,0V21A1,1,0,0,1,12,22ZM5,18a1,1,0,0,1-1-1V3A1,1,0,0,1,6,3V17A1,1,0,0,1,5,18Zm14-6a1,1,0,0,1-1-1V3a1,1,0,0,1,2,0v8A1,1,0,0,1,19,11Z"-->
    <path stroke="white" stroke-width="3" d="M4.5 2 v20"/>
    <path stroke="white" stroke-width="3" d="M12 2 v20"/>
    <path stroke="white" stroke-width="3" d="M19.5 2 v20"/>
    <circle fill="oklch(66.31% 0.1509 239.62)" r="4" cx="4.5" cy="7"/>
    <circle fill="oklch(72.27% 0.192 149.58)" r="4" cx="12" cy="17"/>
    <circle fill="oklch(82% 0.4 84.429)" r="4" cx="19.5" cy="7"/>
</svg>